<?xml version="1.0" encoding="UTF-8"?>
<!-- Generator: visioncortex VTracer 0.6.3 -->
<svg version="1.1" xmlns="http://www.w3.org/2000/svg" width="1280" height="1280">
<path d="M0 0 C1.03 -0 1.03 -0 2.08 -0 C4.38 -0.01 6.67 -0.01 8.97 -0 C10.64 -0 12.32 -0.01 13.99 -0.01 C18.6 -0.01 23.21 -0.01 27.82 -0.01 C32.82 -0.01 37.83 -0.01 42.84 -0.01 C51.63 -0.02 60.41 -0.02 69.19 -0.02 C82.26 -0.02 95.32 -0.02 108.38 -0.03 C133.07 -0.04 157.76 -0.04 182.44 -0.04 C185.16 -0.04 187.89 -0.04 190.61 -0.04 C191.29 -0.04 191.96 -0.04 192.66 -0.04 C207.63 -0.04 222.61 -0.04 237.58 -0.05 C243.75 -0.05 249.91 -0.05 256.08 -0.05 C257.1 -0.05 257.1 -0.05 258.14 -0.05 C297.19 -0.06 336.23 -0.06 375.27 -0.06 C376.73 -0.06 378.19 -0.06 379.66 -0.06 C386.25 -0.06 392.85 -0.06 399.45 -0.06 C402.39 -0.06 405.33 -0.06 408.27 -0.06 C409.75 -0.06 411.22 -0.06 412.69 -0.06 C459.25 -0.06 505.8 -0.07 552.36 -0.08 C564.09 -0.08 575.81 -0.09 587.54 -0.09 C588.26 -0.09 588.99 -0.09 589.73 -0.09 C611.99 -0.1 634.25 -0.1 656.51 -0.1 C657.21 -0.1 657.91 -0.1 658.63 -0.1 C673.97 -0.1 689.32 -0.1 704.66 -0.1 C710.15 -0.1 715.65 -0.1 721.14 -0.1 C722.5 -0.1 723.87 -0.1 725.23 -0.1 C746.99 -0.1 768.75 -0.11 790.51 -0.12 C813.04 -0.13 835.57 -0.13 858.1 -0.12 C871.09 -0.12 884.07 -0.12 897.06 -0.13 C905.74 -0.13 914.41 -0.13 923.09 -0.13 C928.03 -0.12 932.97 -0.12 937.92 -0.13 C942.42 -0.14 946.92 -0.13 951.42 -0.13 C953.03 -0.12 954.65 -0.12 956.26 -0.13 C976.09 -0.19 998.81 1.57 1014 15.88 C1015.88 18.13 1015.88 18.13 1015.88 20.13 C1016.45 20.39 1017.03 20.65 1017.62 20.92 C1020.04 22.21 1021.88 23.69 1023.94 25.5 C1024.95 26.38 1024.95 26.38 1025.97 27.27 C1027.87 29.12 1029.42 30.92 1030.88 33.13 C1030.88 33.79 1030.88 34.45 1030.88 35.13 C1031.48 35.39 1032.07 35.65 1032.69 35.92 C1041.54 40.82 1045.01 53.6 1047.6 62.62 C1049.92 71.74 1050.26 80.89 1050.48 90.26 C1050.5 91.01 1050.52 91.75 1050.53 92.52 C1051.06 113.33 1051.02 134.14 1051.01 154.95 C1051 160.84 1051.01 166.74 1051.01 172.63 C1051.01 184.13 1051.01 195.62 1051.01 207.12 C1051.01 216.48 1051.01 225.83 1051.01 235.19 C1051.01 235.86 1051.01 236.53 1051.01 237.22 C1051.01 239.93 1051.01 242.65 1051.01 245.37 C1051.01 270.77 1051.01 296.16 1051.01 321.56 C1051 344.04 1051 366.51 1051.01 388.99 C1051.01 414.35 1051.01 439.7 1051.01 465.06 C1051.01 467.77 1051.01 470.49 1051.01 473.2 C1051.01 473.87 1051.01 474.53 1051.01 475.22 C1051.01 485.22 1051.01 495.22 1051.01 505.23 C1051.01 516.62 1051.01 528.01 1051.01 539.4 C1051.01 545.2 1051.01 550.99 1051.01 556.79 C1051.02 577.01 1051.01 597.23 1050.48 617.45 C1050.46 618.14 1050.44 618.83 1050.43 619.54 C1049.99 637.49 1047.56 657.33 1034.88 671.13 C1033.23 672.48 1031.56 673.81 1029.88 675.13 C1028.75 676.38 1027.65 677.65 1026.56 678.94 C1023.53 682.5 1020.27 685.53 1016.71 688.54 C1014.71 690.22 1014.71 690.22 1012.44 692.69 C996.85 707.52 974.38 708.44 953.98 708.38 C952.31 708.38 950.63 708.39 948.96 708.39 C944.38 708.4 939.8 708.4 935.22 708.39 C930.23 708.39 925.24 708.39 920.24 708.4 C911.5 708.41 902.76 708.41 894.02 708.41 C881.02 708.4 868.02 708.41 855.03 708.41 C831.13 708.43 807.24 708.43 783.35 708.43 C779.97 708.43 776.58 708.43 773.2 708.43 C772.53 708.43 771.86 708.43 771.16 708.43 C756.26 708.43 741.35 708.43 726.45 708.43 C723.04 708.43 719.64 708.43 716.23 708.43 C714.87 708.44 713.5 708.44 712.13 708.44 C711.45 708.44 710.78 708.44 710.08 708.44 C708.71 708.44 707.34 708.44 705.97 708.44 C667.09 708.45 628.21 708.45 589.34 708.45 C588.62 708.45 587.9 708.45 587.16 708.45 C579.13 708.45 571.11 708.44 563.08 708.44 C562.36 708.44 561.64 708.44 560.89 708.44 C554.87 708.44 554.87 708.44 552.1 708.44 C505.77 708.44 459.44 708.44 413.11 708.46 C401.43 708.47 389.76 708.47 378.08 708.48 C377.36 708.48 376.65 708.48 375.91 708.48 C353.74 708.49 331.58 708.49 309.41 708.49 C308.72 708.49 308.02 708.49 307.3 708.49 C292.02 708.49 276.74 708.49 261.46 708.49 C255.99 708.49 250.52 708.49 245.05 708.49 C243.69 708.49 242.33 708.49 240.97 708.49 C219.32 708.49 197.66 708.49 176.01 708.51 C153.59 708.52 131.17 708.52 108.74 708.51 C95.82 708.5 82.9 708.5 69.98 708.51 C61.35 708.52 52.71 708.52 44.07 708.51 C39.16 708.5 34.24 708.5 29.32 708.51 C24.84 708.52 20.36 708.52 15.87 708.51 C14.27 708.5 12.67 708.5 11.07 708.51 C-8.47 708.6 -31.76 707.08 -47.02 693.43 C-48.17 692.27 -49.31 691.09 -50.43 689.89 C-52.14 688.11 -53.92 686.57 -55.81 685 C-64.17 677.75 -72.74 669.43 -77.12 659.13 C-77.48 658.31 -77.83 657.5 -78.19 656.66 C-83.13 644.23 -84.58 631.47 -84.8 618.21 C-84.84 616.74 -84.87 615.28 -84.9 613.82 C-85.33 593.97 -85.27 574.11 -85.25 554.25 C-85.25 548.33 -85.26 542.41 -85.26 536.49 C-85.26 524.95 -85.26 513.4 -85.26 501.85 C-85.26 492.45 -85.26 483.05 -85.26 473.66 C-85.26 472.98 -85.26 472.31 -85.26 471.62 C-85.26 468.89 -85.26 466.16 -85.26 463.43 C-85.26 437.92 -85.26 412.41 -85.25 386.9 C-85.25 364.33 -85.25 341.75 -85.25 319.17 C-85.26 293.71 -85.26 268.24 -85.26 242.77 C-85.26 240.05 -85.26 237.32 -85.26 234.6 C-85.26 233.93 -85.26 233.26 -85.26 232.57 C-85.26 222.52 -85.26 212.47 -85.26 202.43 C-85.26 190.99 -85.26 179.54 -85.26 168.1 C-85.25 162.28 -85.25 156.46 -85.26 150.64 C-85.27 130.35 -85.26 110.07 -84.73 89.8 C-84.71 89.11 -84.7 88.42 -84.68 87.72 C-84.15 65.69 -79.62 48.59 -64.84 32.06 C-63.75 30.84 -62.69 29.59 -61.66 28.31 C-58.3 24.16 -54.62 21.01 -50.34 17.82 C-48.35 16.3 -46.57 14.71 -44.75 13 C-33.35 3.24 -14.53 0 0 0 Z M111.88 118.13 C109.99 121.36 109.33 124.49 108.64 128.17 C105.63 143.88 99.53 154.29 87.88 165.13 C86.95 166.19 86.05 167.27 85.19 168.38 C82.67 171.37 79.96 173.81 76.98 176.33 C75.59 177.52 74.21 178.74 72.86 179.99 C63.4 188.69 52.09 192.14 39.44 193.94 C34.09 194.9 31.12 197.92 27.88 202.13 C26.64 204.61 26.74 206.26 26.73 209.04 C26.73 210.08 26.72 211.12 26.71 212.2 C26.71 213.36 26.71 214.51 26.71 215.7 C26.7 216.92 26.7 218.14 26.69 219.4 C26.68 222.8 26.67 226.2 26.66 229.6 C26.65 232.52 26.64 235.43 26.63 238.35 C26.58 248.79 26.56 259.23 26.53 269.67 C26.53 270.49 26.53 271.31 26.53 272.16 C26.49 288.52 26.45 304.87 26.43 321.22 C26.43 324.82 26.42 328.42 26.42 332.01 C26.41 332.91 26.41 333.8 26.41 334.72 C26.39 349.2 26.34 363.68 26.28 378.16 C26.22 393.02 26.19 407.88 26.18 422.75 C26.17 431.09 26.15 439.44 26.11 447.78 C26.06 454.89 26.05 462 26.06 469.11 C26.07 472.74 26.06 476.36 26.03 479.99 C25.99 483.92 26.01 487.85 26.03 491.79 C26.01 492.93 25.99 494.07 25.97 495.25 C26.06 502.1 27.23 505.76 32.09 510.67 C34.6 512.71 36.71 513.5 39.88 514.13 C41.16 514.41 42.44 514.69 43.76 514.99 C44.79 515.2 44.79 515.2 45.84 515.42 C57.54 517.9 69.09 521.79 76.75 531.5 C78.64 533.84 80.47 535.57 82.75 537.5 C86.01 540.29 88.79 543.2 91.51 546.51 C93 548.33 93 548.33 95.44 550.56 C102.29 557.76 105.82 566.71 107.77 576.36 C109.68 586.93 109.68 586.93 116.29 595.1 C119.31 597.06 121.19 597.25 124.77 597.26 C125.81 597.26 126.86 597.27 127.93 597.27 C129.09 597.27 130.25 597.27 131.44 597.27 C132.66 597.27 133.89 597.28 135.15 597.28 C138.58 597.29 142.01 597.29 145.44 597.29 C149.16 597.3 152.88 597.3 156.6 597.31 C163.99 597.33 171.38 597.34 178.77 597.34 C184.91 597.35 191.06 597.36 197.2 597.37 C198.53 597.37 198.53 597.37 199.89 597.37 C201.69 597.38 203.5 597.38 205.3 597.38 C228.72 597.42 252.14 597.44 275.56 597.47 C278.59 597.47 281.62 597.47 284.66 597.48 C323.22 597.51 361.78 597.55 400.35 597.57 C410.15 597.57 419.96 597.58 429.77 597.59 C430.85 597.59 431.94 597.59 433.05 597.59 C468.19 597.61 503.34 597.66 538.48 597.72 C574.59 597.78 610.7 597.82 646.82 597.82 C651.91 597.83 657.01 597.83 662.11 597.83 C663.62 597.83 663.62 597.83 665.15 597.83 C681.32 597.84 697.48 597.87 713.64 597.9 C729.88 597.94 746.13 597.95 762.37 597.94 C772.02 597.93 781.67 597.95 791.33 597.98 C797.77 598.01 804.22 598.01 810.66 597.99 C814.34 597.98 818.01 597.98 821.69 598.01 C825.65 598.04 829.6 598.02 833.56 597.99 C834.7 598.01 835.85 598.03 837.02 598.05 C843.89 597.94 847.52 596.75 852.42 591.86 C854.27 589.66 855.2 587.94 855.88 585.13 C856.18 583.85 856.49 582.58 856.81 581.27 C857.12 579.83 857.44 578.38 857.75 576.94 C862.99 554.1 879.86 535.01 899.56 522.47 C905.81 518.84 911.94 517.07 919 515.78 C929.17 514.12 929.17 514.12 936.91 507.71 C938.76 504.66 939 502.78 939.02 499.22 C939.03 497.65 939.03 497.65 939.04 496.05 C939.04 494.9 939.04 493.74 939.04 492.55 C939.05 491.33 939.05 490.11 939.06 488.85 C939.08 485.45 939.09 482.05 939.09 478.65 C939.1 475.73 939.11 472.82 939.13 469.91 C939.17 459.47 939.19 449.03 939.22 438.59 C939.22 437.76 939.22 436.94 939.23 436.09 C939.26 419.74 939.3 403.38 939.32 387.03 C939.33 383.43 939.33 379.84 939.34 376.24 C939.34 375.35 939.34 374.45 939.34 373.53 C939.36 359.05 939.41 344.57 939.47 330.09 C939.53 315.23 939.57 300.37 939.58 285.51 C939.58 277.16 939.6 268.82 939.65 260.47 C939.69 253.36 939.7 246.25 939.69 239.14 C939.68 235.52 939.69 231.89 939.72 228.27 C939.76 224.33 939.75 220.4 939.72 216.46 C939.75 214.75 939.75 214.75 939.78 213 C939.69 206.15 938.52 202.49 933.66 197.58 C931.16 195.54 929.04 194.75 925.88 194.13 C924.59 193.84 923.31 193.56 921.99 193.27 C921.31 193.12 920.62 192.98 919.91 192.83 C908.21 190.36 896.67 186.46 889 176.75 C887.11 174.41 885.28 172.69 883 170.75 C879.74 167.97 876.96 165.05 874.24 161.74 C872.75 159.92 872.75 159.92 870.31 157.69 C863.02 150.02 859.49 140.6 857.53 130.35 C855.75 120.58 855.75 120.58 849.46 113.12 C846.43 111.22 844.55 111 840.98 110.99 C839.94 110.99 838.9 110.99 837.82 110.98 C836.66 110.98 835.51 110.98 834.31 110.98 C833.09 110.98 831.86 110.98 830.6 110.97 C827.17 110.97 823.74 110.96 820.31 110.96 C816.6 110.96 812.88 110.95 809.16 110.94 C801.77 110.93 794.38 110.92 786.99 110.91 C780.84 110.9 774.69 110.9 768.55 110.89 C767.66 110.88 766.78 110.88 765.86 110.88 C764.06 110.88 762.25 110.87 760.45 110.87 C737.03 110.83 713.61 110.81 690.19 110.79 C687.16 110.78 684.13 110.78 681.09 110.78 C642.53 110.74 603.97 110.71 565.4 110.68 C555.6 110.68 545.79 110.67 535.98 110.67 C534.9 110.67 533.82 110.67 532.7 110.66 C497.56 110.64 462.41 110.6 427.27 110.54 C391.16 110.48 355.05 110.44 318.93 110.43 C313.84 110.43 308.74 110.43 303.64 110.42 C302.64 110.42 301.63 110.42 300.6 110.42 C284.44 110.42 268.27 110.39 252.11 110.35 C235.87 110.31 219.63 110.3 203.39 110.31 C193.73 110.32 184.08 110.31 174.42 110.27 C167.98 110.24 161.53 110.24 155.09 110.27 C151.41 110.28 147.74 110.28 144.06 110.25 C140.11 110.21 136.15 110.24 132.19 110.26 C130.48 110.24 130.48 110.24 128.73 110.21 C121.12 110.32 116.7 112.1 111.88 118.13 Z " fill="#000002" transform="translate(157.12424474954605,157.87350016832352)"/>
<path d="M0 0 C3.72 0.01 7.44 0.02 11.15 0.02 C141.98 0.22 141.98 0.22 203.31 3.2 C204.39 3.25 205.48 3.3 206.6 3.36 C230.71 4.52 254.77 5.99 278.81 8.2 C279.66 8.28 280.52 8.35 281.4 8.43 C314.3 11.46 314.3 11.46 329.31 16.07 C330.18 16.33 331.05 16.59 331.95 16.86 C343.97 20.52 354.25 25.41 364.48 32.76 C390.12 45.81 430.18 42.59 458.24 44.34 C540.94 49.5 540.94 49.5 565.31 74.2 C565.64 74.86 565.97 75.52 566.31 76.2 C568.61 76.89 570.86 77.46 573.21 77.97 C573.93 78.13 574.66 78.29 575.4 78.46 C577.83 78.99 580.25 79.5 582.68 80.01 C583.52 80.19 584.35 80.37 585.21 80.55 C600.77 83.83 616.37 85.9 632.18 87.47 C658.38 90.12 684.29 94.64 704.31 113.2 C704.99 114.19 705.66 115.18 706.36 116.2 C710.05 120.72 715.58 121.66 721 123.14 C722.03 123.45 723.07 123.77 724.14 124.09 C737.22 127.81 750.08 124.78 762.31 119.2 C764.61 117.43 765.95 115.85 767.58 113.47 C771.19 108.71 776.21 105.15 780.82 101.41 C782.05 100.41 783.26 99.37 784.47 98.34 C791.29 92.72 799.51 89.82 808.12 88.28 C808.96 88.13 809.8 87.98 810.66 87.82 C812.3 87.54 813.95 87.29 815.6 87.07 C821.31 86.11 824.17 84.01 827.85 79.58 C830.41 75.39 830.2 71.36 830.07 66.56 C830.07 65.55 830.07 64.55 830.08 63.52 C830.08 60.33 830.04 57.14 830 53.95 C829.67 21.23 829.67 21.23 840.31 10.2 C849.12 1.7 860.37 -0.43 872.25 -0.33 C873.88 -0.34 873.88 -0.34 875.55 -0.35 C877.83 -0.35 880.12 -0.34 882.4 -0.32 C885.87 -0.3 889.33 -0.32 892.8 -0.35 C895.03 -0.35 897.27 -0.34 899.5 -0.33 C901.03 -0.35 901.03 -0.35 902.59 -0.36 C913.21 -0.22 923.22 3.14 931.31 10.2 C940.42 20.42 941.91 32.97 941.78 46.13 C941.78 47.59 941.78 49.05 941.78 50.51 C941.79 54.45 941.77 58.38 941.75 62.32 C941.72 66.47 941.73 70.62 941.72 74.78 C941.72 81.76 941.7 88.74 941.66 95.73 C941.62 104.62 941.61 113.5 941.6 122.39 C941.59 130.11 941.57 137.83 941.55 145.55 C941.55 147.19 941.54 148.83 941.54 150.47 C941.47 181.54 941.47 181.54 940.93 196.7 C940.9 197.61 940.87 198.53 940.84 199.47 C940.22 213.96 937.08 232.21 926.55 243 C925.41 243.94 924.25 244.86 923.06 245.74 C920.92 247.52 919.45 249.52 917.81 251.76 C915.18 255.27 912.71 257.53 909.05 259.89 C906.98 261.44 905.51 263.2 903.87 265.2 C894.59 276.04 877.73 280.3 863.82 281.39 C861.26 281.48 858.71 281.5 856.15 281.5 C854.74 281.51 854.74 281.51 853.3 281.52 C850.28 281.53 847.26 281.52 844.25 281.51 C843.21 281.51 842.18 281.51 841.12 281.5 C825.67 281.45 810.52 281.14 795.31 278.2 C794.25 277.99 793.19 277.79 792.1 277.58 C772.92 273.73 755.43 268.67 743.18 252.26 C741.31 249.2 741.31 249.2 741.31 247.2 C734.08 245.74 726.85 244.3 719.62 242.86 C716.76 242.29 713.89 241.7 711.03 241.12 C700.83 239.06 690.63 237.56 680.31 236.26 C654.42 232.95 630.4 228.6 613.31 207.2 C612.98 206.54 612.65 205.88 612.31 205.2 C609.98 204.38 609.98 204.38 607.12 203.76 C606.03 203.5 604.94 203.24 603.81 202.98 C602.65 202.72 601.5 202.46 600.31 202.2 C599.22 201.95 598.13 201.71 597.01 201.46 C579.27 197.63 561.64 195.38 543.57 193.83 C471.23 187.65 471.23 187.65 450.18 165.25 C441.6 159.13 428.9 158.96 418.68 157.57 C417.12 157.35 415.56 157.14 414 156.92 C403.1 155.4 392.32 154.12 381.32 153.62 C379.09 153.51 376.87 153.41 374.65 153.3 C373.48 153.24 372.31 153.18 371.1 153.13 C195.45 144.56 195.45 144.56 156.56 123.24 C151.62 120.56 147.44 119.45 141.87 119.01 C141.06 118.94 140.25 118.87 139.41 118.79 C128.42 117.85 117.39 117.52 106.37 117.14 C103.15 117.02 99.93 116.9 96.71 116.78 C94.59 116.7 92.48 116.62 90.37 116.55 C83.93 116.31 77.5 116.01 71.07 115.66 C64.44 115.31 57.83 115.1 51.2 115.02 C50.33 115.01 49.45 115 48.55 114.99 C47.65 114.98 46.76 114.97 45.83 114.96 C21.72 114.67 -2.31 113.55 -26.38 112.2 C-27.18 112.15 -27.99 112.11 -28.82 112.06 C-34.24 111.76 -39.66 111.45 -45.08 111.14 C-45.77 111.1 -46.47 111.05 -47.18 111.01 C-51.69 110.75 -56.19 110.48 -60.69 110.2 C-61.99 110.12 -63.29 110.04 -64.64 109.95 C-65.89 109.87 -67.13 109.79 -68.42 109.7 C-69.54 109.63 -70.65 109.55 -71.8 109.48 C-81.59 108.53 -90.72 103.56 -97.37 96.39 C-104.92 87.07 -106.33 77.43 -106.48 65.8 C-106.5 63.6 -106.56 61.4 -106.62 59.2 C-107.3 30.46 -107.3 30.46 -101.69 21.2 C-101.05 20.13 -100.41 19.05 -99.75 17.95 C-93.04 9 -84.28 3.71 -73.27 1.77 C-70.48 1.44 -67.7 1.21 -64.9 1.02 C-63.77 0.94 -62.63 0.86 -61.46 0.78 C-41.01 -0.45 -20.47 -0.06 0 0 Z " fill="#000002" transform="translate(223.69240188598633,925.802360534668)"/>
<path d="M0 0 C1.99 -0.01 3.98 -0.02 5.97 -0.03 C20.44 -0.1 34.76 0.31 49.15 1.7 C50.97 1.88 50.97 1.88 52.82 2.06 C67.49 3.63 82.94 6.85 93.44 18.15 C95.46 21.08 96.86 24.26 98.34 27.49 C100.82 32.85 103.01 36.08 108.52 38.51 C109.33 38.79 110.13 39.08 110.97 39.37 C112.29 39.84 112.29 39.84 113.64 40.33 C114.55 40.65 115.46 40.97 116.4 41.31 C127.17 45.13 134.42 50.16 139.97 60.37 C141.75 64.63 143.17 69.02 144.62 73.4 C147.15 80.97 149.16 85.71 156.4 89.62 C157.37 90.09 158.33 90.57 159.32 91.06 C168.37 95.55 173.88 104.07 177.65 113.18 C181.62 125.06 182.66 137.96 183.97 150.37 C184.05 151.19 184.14 152 184.23 152.84 C185.12 162.05 185.15 171.22 185.17 180.46 C185.17 181.32 185.18 182.17 185.18 183.06 C185.19 187.61 185.2 192.16 185.21 196.72 C185.21 200.41 185.23 204.11 185.25 207.81 C185.76 291.57 185.76 291.57 167.03 311.54 C162.62 315.44 157.03 320.37 150.97 320.37 C150.68 321.1 150.4 321.83 150.11 322.58 C149.07 325.12 147.92 327.5 146.65 329.93 C144.72 333.72 143.08 337.54 141.53 341.49 C137.27 351.78 131.42 358.26 121.04 362.59 C110.68 366.27 100.36 366.58 89.46 366.92 C88.15 366.97 86.84 367.01 85.49 367.05 C71.07 367.49 56.66 367.52 42.24 367.5 C38.43 367.5 34.63 367.5 30.82 367.5 C24.44 367.51 18.06 367.5 11.68 367.5 C4.4 367.49 -2.88 367.5 -10.17 367.5 C-16.52 367.51 -22.87 367.51 -29.23 367.5 C-32.98 367.5 -36.73 367.5 -40.48 367.51 C-55.42 367.52 -70.35 367.42 -85.28 366.99 C-86.47 366.96 -87.67 366.92 -88.9 366.89 C-104.23 366.38 -119.52 364.82 -131.06 353.74 C-135.69 348.17 -138.44 341.56 -140.53 334.68 C-142.37 328.9 -144.95 323.19 -150.33 320.01 C-152.04 319.24 -153.74 318.47 -155.45 317.7 C-165.53 312.5 -171.57 301.82 -175.03 291.37 C-177.04 283.49 -178.09 275.44 -179.03 267.37 C-179.11 266.68 -179.2 265.99 -179.28 265.28 C-180.73 252.69 -181.35 240.28 -181.33 227.62 C-181.34 225.79 -181.34 223.96 -181.35 222.13 C-181.35 218.32 -181.35 214.52 -181.35 210.71 C-181.34 206.87 -181.35 203.04 -181.37 199.2 C-181.76 116.7 -181.76 116.7 -164.03 97.37 C-159.54 92.9 -153.62 87.37 -147.03 87.37 C-146.79 86.71 -146.54 86.05 -146.28 85.37 C-145.33 83.08 -144.32 80.99 -143.16 78.81 C-141.44 75.45 -140.27 72.1 -139.16 68.49 C-135.71 57.89 -130.37 49.35 -120.39 43.94 C-115.42 41.6 -110.4 39.7 -105.1 38.24 C-99.83 36.02 -97.46 32.82 -95.28 27.68 C-90.09 16.86 -82.17 10.61 -71.03 6.37 C-48.36 -0.9 -23.55 0.06 0 0 Z " fill="#000002" transform="translate(638.0328636169434,328.6311912536621)"/>
<path d="M0 0 C1.53 -0.01 1.53 -0.01 3.09 -0.02 C5.24 -0.03 7.38 -0.02 9.53 -0.01 C12.77 0 16.02 -0.03 19.26 -0.07 C34.47 -0.13 46.46 0.97 57.89 12.1 C61.11 15.9 63.21 19.92 64.98 24.57 C65.32 25.4 65.67 26.23 66.02 27.09 C67.28 31.65 67.3 35.9 67.32 40.61 C67.33 42.06 67.33 42.06 67.34 43.53 C67.35 45.57 67.35 47.6 67.35 49.64 C67.36 52.73 67.39 55.81 67.43 58.9 C67.52 74.04 65.7 85.5 55.5 97.28 C44.8 107.68 30.47 107.36 16.58 107.22 C13.42 107.19 10.27 107.22 7.11 107.25 C-7.03 107.27 -19.43 106.04 -30.02 95.57 C-38.82 84.78 -39.69 74.06 -40.02 60.57 C-40.06 59.43 -40.1 58.29 -40.13 57.11 C-40.25 53.33 -40.33 49.54 -40.39 45.75 C-40.43 44.55 -40.47 43.35 -40.51 42.11 C-40.62 30.37 -37.34 19.16 -29.02 10.57 C-20.6 2.77 -11.3 -0.06 0 0 Z " fill="#000002" transform="translate(285.01953125,458.43359375)"/>
<path d="M0 0 C0.92 -0.02 1.84 -0.03 2.79 -0.05 C7.04 -0.09 11.28 -0.13 15.52 -0.16 C17.74 -0.17 19.97 -0.2 22.2 -0.24 C45.97 -0.65 45.97 -0.65 55.44 5.19 C56.61 5.91 56.61 5.91 57.81 6.64 C65.39 11.56 70.1 19.57 72.44 28.19 C72.87 31.99 72.89 35.75 72.88 39.56 C72.88 40.63 72.89 41.71 72.89 42.82 C72.9 45.08 72.9 47.35 72.89 49.61 C72.88 53.05 72.91 56.49 72.94 59.93 C72.94 62.14 72.94 64.35 72.94 66.56 C72.95 67.58 72.96 68.59 72.97 69.64 C72.87 80.43 69.14 89.54 61.44 97.19 C52.51 103.87 43.85 106.66 32.84 106.66 C31.84 106.67 30.84 106.68 29.8 106.68 C27.69 106.7 25.58 106.7 23.47 106.69 C20.28 106.69 17.09 106.73 13.9 106.78 C-1.22 106.87 -13.1 105.73 -24.46 94.66 C-27.69 90.86 -29.78 86.84 -31.56 82.19 C-32.07 80.95 -32.07 80.95 -32.59 79.68 C-33.87 75.07 -33.9 70.76 -33.93 66 C-33.94 65.02 -33.95 64.04 -33.95 63.03 C-33.97 60.95 -33.98 58.88 -33.98 56.8 C-33.99 53.66 -34.04 50.53 -34.09 47.39 C-34.22 32.48 -33.07 20.6 -22.17 9.36 C-16 4.25 -8.1 0.13 0 0 Z " fill="#000002" transform="translate(961.556396484375,458.80712890625)"/>
</svg>
